<svg xmlns="http://www.w3.org/2000/svg" viewBox="0 0 95.04 26.12"><defs><style>.cls-1{fill:#62afce;}</style></defs><title>Logo</title><g id="Layer_2" data-name="Layer 2"><g id="Layer_1-2" data-name="Layer 1"><path class="cls-1" d="M36.56,10.38h-9.5v2.88a.2.2,0,0,1-.2.19H25.3a.22.22,0,0,1-.21-.2v-10c0-.16.08-.21.21-.21H35.87a.5.5,0,0,1,.33.14l2.2,2.19a.59.59,0,0,1,.13.34v7.57a.22.22,0,0,1-.2.2H36.76a.22.22,0,0,1-.2-.21V10.38Zm0-2.07V6.5a.57.57,0,0,0-.13-.33l-1-1A.5.5,0,0,0,35.07,5H27.25a.18.18,0,0,0-.19.2V8.41h9.5Z"/><path class="cls-1" d="M51.13,7.34H45.71c-.13,0-.19.06-.19.2v5.69a.23.23,0,0,1-.2.23H43.74a.23.23,0,0,1-.2-.22V.2a.22.22,0,0,1,.22-.2H54a.58.58,0,0,1,.36.15l2.17,2.17a.58.58,0,0,1,.14.35V7.15a.19.19,0,0,1-.2.19H54l1.46,1.45a.49.49,0,0,1,.13.35v4.12a.19.19,0,0,1-.19.2H53.83a.19.19,0,0,1-.21-.18V10a.54.54,0,0,0-.13-.32L51.21,7.35ZM45.51,5.17a.18.18,0,0,0,.2.2h8.8c.15,0,.19-.08.19-.2V3.46a.54.54,0,0,0-.13-.33l-1-1a.47.47,0,0,0-.3-.14H45.71a.2.2,0,0,0-.19.2Z"/><path class="cls-1" d="M92.73,13.36a1,1,0,0,1-.59.17H88.63c-.12,0-.15,0-.15-.16V12.05c0-.15.09-.17.21-.17h2.68a1,1,0,0,0,.52-.11L93,11a.31.31,0,0,0,.15-.3v-.57A.2.2,0,0,0,93,9.91H88.63c-.17,0-.17-.12-.17-.16V6.87a.4.4,0,0,1,.14-.32l2-1.88A.42.42,0,0,1,91,4.55h3.9c.12,0,.13,0,.13.16V6c0,.12,0,.16-.17.16h-3a.42.42,0,0,0-.31.13l-1,.89c-.08.09-.13.11-.13.23V8.2c0,.11,0,.12.14.12h4.28a.26.26,0,0,1,.25.24v3.15a.33.33,0,0,1-.13.31Z"/><path class="cls-1" d="M75.34,4.68l-.87.86,2,1.8a.3.3,0,0,1,.09.26v3.66c0,.11,0,.16-.17.16H74.71q-.15,0-.15-.18V8.4a.33.33,0,0,0-.11-.26L73,7H63.85a.18.18,0,0,0-.2.18v4.07a.17.17,0,0,1-.16.19H61.84c-.11,0-.16-.09-.16-.2V1.46a.18.18,0,0,1,.18-.17H63.5c.11,0,.15.08.15.19V4.81a.2.2,0,0,0,.2.2H72a.46.46,0,0,0,.32-.15l1-1a.36.36,0,0,0,.1-.28V1.46a.16.16,0,0,1,.16-.17H75.3c.13,0,.16.08.16.19V4.43a.47.47,0,0,1-.14.28"/><path class="cls-1" d="M8.86,3.76H.28c-.21,0-.28.09-.28.31v7.15a.21.21,0,0,0,.19.2H1.78a.21.21,0,0,0,.19-.2V5.92a.19.19,0,0,1,.2-.19H9v5.49a.21.21,0,0,0,.19.2h1.58a.19.19,0,0,0,.19-.2v-9a.2.2,0,0,1,.2-.2h5.53a.54.54,0,0,1,.33.14l1,1a.54.54,0,0,1,.14.34v7.77a.22.22,0,0,0,.22.19H20a.21.21,0,0,0,.19-.19V2.67A.52.52,0,0,0,20,2.33L17.82.14A.5.5,0,0,0,17.49,0H9.19C9,0,9,.08,9,.28V3.76Z"/><path class="cls-1" d="M84.16,13.28a.21.21,0,0,1-.21.22h-1.4a.22.22,0,0,1-.22-.22V4.89a.22.22,0,0,1,.22-.22H84a.21.21,0,0,1,.21.22Z"/><rect class="cls-1" x="26.48" y="21.16" width="0.71" height="4.88"/><path class="cls-1" d="M42,21.16h.7V19.93h.72v1.23h1.18l-.07.62H43.39V24.6a1.56,1.56,0,0,0,.13.67.47.47,0,0,0,.44.25,2.13,2.13,0,0,0,.39,0l.32-.07.06.62-.39.06-.46,0a1.28,1.28,0,0,1-.89-.28,1.4,1.4,0,0,1-.32-1.06v-3H42Z"/><path class="cls-1" d="M49.15,26.12a2.14,2.14,0,0,1-1.73-.7,2.89,2.89,0,0,1-.59-1.89,2.56,2.56,0,0,1,.62-1.75,2.14,2.14,0,0,1,1.68-.7,2,2,0,0,1,1.65.73,2.84,2.84,0,0,1,.58,1.81,2.7,2.7,0,0,1-.61,1.77,2,2,0,0,1-1.6.73m0-.57a1.21,1.21,0,0,0,.66-.18,1.81,1.81,0,0,0,.55-.64,2.36,2.36,0,0,0,.28-1.25,2.25,2.25,0,0,0-.38-1.26,1.25,1.25,0,0,0-1.12-.56,1.33,1.33,0,0,0-1.14.53,2.42,2.42,0,0,0-.4,1.43,2,2,0,0,0,.29,1.16,2,2,0,0,0,.58.6,1.37,1.37,0,0,0,.68.17"/><rect class="cls-1" x="62.52" y="21.16" width="0.71" height="4.88"/><path class="cls-1" d="M66.42,21.16c0,.08,0,.18,0,.31s0,.31,0,.52a2.56,2.56,0,0,1,.81-.66,2,2,0,0,1,1-.25h.22l-.15.75a1.69,1.69,0,0,0-.35,0,1.78,1.78,0,0,0-1,.27,1.47,1.47,0,0,0-.51.53V26h-.71V21.83c0-.39,0-.61,0-.67Z"/><rect class="cls-1" x="76.77" y="21.16" width="0.71" height="4.88"/><path class="cls-1" d="M37.44,26.11a2.13,2.13,0,0,1-.71-.14,1.34,1.34,0,0,1-.32-.21,1.19,1.19,0,0,1-.34-.47,1.59,1.59,0,0,1-.11-.54,1.22,1.22,0,0,1,.13-.65,1.57,1.57,0,0,1,.4-.49,1.33,1.33,0,0,1,.43-.28,2.67,2.67,0,0,1,.68-.22,5.52,5.52,0,0,1,.68-.09l.65,0v-.44a.89.89,0,0,0-.24-.69,1.06,1.06,0,0,0-.69-.22,1.73,1.73,0,0,0-.47.06,2.19,2.19,0,0,0-.41.15,2.3,2.3,0,0,0-.35.2l-.29.21-.37-.49a1.9,1.9,0,0,1,.38-.29,4,4,0,0,1,.47-.21,3.34,3.34,0,0,1,.52-.14,3.29,3.29,0,0,1,.54-.05,1.79,1.79,0,0,1,1.19.38,1.31,1.31,0,0,1,.44,1v3.6Zm1-.56a3.09,3.09,0,0,0,.47,0v-2c-.4,0-.76,0-1,.06a2.16,2.16,0,0,0-.74.2,1,1,0,0,0-.4.36,1.13,1.13,0,0,0-.13.54.74.74,0,0,0,.19.54.93.93,0,0,0,.62.31c.25,0,.8,0,1,0"/><path class="cls-1" d="M71.68,26.08a1.92,1.92,0,0,1-.71-.15,1.08,1.08,0,0,1-.33-.2,1.15,1.15,0,0,1-.33-.47,1.54,1.54,0,0,1,0-1.19,1.46,1.46,0,0,1,.39-.49,1.91,1.91,0,0,1,.43-.29,2.72,2.72,0,0,1,.69-.21,5.28,5.28,0,0,1,.68-.09c.23,0,.46,0,.65,0v-.44a.84.84,0,0,0-.25-.69,1,1,0,0,0-.69-.22,1.73,1.73,0,0,0-.47.06,2.48,2.48,0,0,0-.41.15A2.43,2.43,0,0,0,71,22l-.28.2-.38-.49a2,2,0,0,1,.39-.28,3.35,3.35,0,0,1,.47-.21,3.07,3.07,0,0,1,.52-.14,3.23,3.23,0,0,1,.53,0,1.82,1.82,0,0,1,1.19.36,1.3,1.3,0,0,1,.44,1.05v3.6Zm1-.56a3.17,3.17,0,0,0,.47,0v-2c-.41,0-.77,0-1,.06a2,2,0,0,0-.74.2.89.89,0,0,0-.4.36,1.11,1.11,0,0,0-.14.54.76.76,0,0,0,.2.54,1,1,0,0,0,.61.31,7.36,7.36,0,0,0,1,0"/><path class="cls-1" d="M32.91,26V22.77a1.11,1.11,0,0,0-.25-.78.8.8,0,0,0-.55-.28,4.72,4.72,0,0,0-.77,0,7.33,7.33,0,0,0-.85.1V26h-.71V21.17s.52-.07.7-.08l.76-.05h.47c.16,0,.31,0,.39,0a1.72,1.72,0,0,1,1.16.45,1.69,1.69,0,0,1,.36,1.12V26Z"/><path class="cls-1" d="M23.84,22a1.23,1.23,0,0,0-.25-.48,1.12,1.12,0,0,0-.42-.31,1.38,1.38,0,0,0-.59-.12,3.49,3.49,0,0,0-1.72.51,1.08,1.08,0,0,0-.44-.36,1.38,1.38,0,0,0-.61-.18l-.47,0-.48,0-.69.08-.62.13c0,.23,0,.44,0,.64V26h.71V21.86a2.49,2.49,0,0,1,.61-.16,3.69,3.69,0,0,1,.82,0,.74.74,0,0,1,.51.27,1.11,1.11,0,0,1,.2.76V26h.72V22.59a2.65,2.65,0,0,0-.07-.59,2.76,2.76,0,0,1,1.29-.34.92.92,0,0,1,.33.06.75.75,0,0,1,.28.18,1,1,0,0,1,.19.3,1.52,1.52,0,0,1,.05.44V26h.73V22.57a2.13,2.13,0,0,0-.09-.58"/><path class="cls-1" d="M59.88,22a1.57,1.57,0,0,0-.25-.48,1.21,1.21,0,0,0-.42-.31,1.4,1.4,0,0,0-.6-.12,3.55,3.55,0,0,0-1.72.51,1.12,1.12,0,0,0-.43-.36,1.42,1.42,0,0,0-.61-.18H55l-.66,0c-.17,0-.7.09-.7.09,0,.22,0,.44,0,.63V26h.7V21.77a4.52,4.52,0,0,1,.76-.09,3,3,0,0,1,.68,0,.69.69,0,0,1,.5.27,1.16,1.16,0,0,1,.21.76V26h.71V22.59A2.68,2.68,0,0,0,57.1,22a2.72,2.72,0,0,1,1.28-.34,1,1,0,0,1,.34.06.75.75,0,0,1,.28.18,1.26,1.26,0,0,1,.18.3,1.23,1.23,0,0,1,.06.44V26H60V22.57a2.14,2.14,0,0,0-.08-.58"/></g></g></svg>